<?xml version="1.0" standalone="no"?><!DOCTYPE svg PUBLIC "-//W3C//DTD SVG 1.1//EN"
        "http://www.w3.org/Graphics/SVG/1.1/DTD/svg11.dtd">
<svg class="icon" viewBox="0 0 1024 1024" version="1.1" xmlns="http://www.w3.org/2000/svg"
     width="16" height="16">
    <defs>
        <style type="text/css"></style>
    </defs>
    <path d="M955.349294 254.995341c-45.785818-78.439269-107.891356-140.544807-186.33296-186.32829C690.560719 22.885904 604.915461 0 512.015178 0c-92.890943 0-178.561887 22.885904-257.003491 68.667051-78.446274 45.776477-140.551813 107.882016-186.337631 186.32829C22.885904 333.446286 0 419.117229 0 512.001168c0 92.888608 22.892909 178.545542 68.667051 257.001156 45.783483 78.439269 107.889021 140.544807 186.335295 186.33296 78.450944 45.778813 164.114883 68.667051 257.003492 68.667051s178.561887-22.888239 257.008161-68.667051c78.441604-45.771807 140.544807-107.893691 186.325955-186.33296 45.774142-78.448609 68.657711-164.117218 68.657711-257.001156 0.002335-92.893278-22.883569-178.566557-68.648371-257.005827z m-129.341199 439.002584c-32.443296 55.553365-76.440459 99.566874-131.993825 132.01017-55.553365 32.443296-116.218173 48.648599-182.006097 48.648599-65.771579 0-126.441057-16.205303-182.001428-48.648599-55.553365-32.445631-99.550529-76.456805-131.993825-132.01017-32.450301-55.553365-48.669614-116.220508-48.669614-181.996757 0-65.78092 16.226318-126.448062 48.669614-182.001428 32.436291-55.553365 76.44513-99.559869 131.993825-132.00083 55.553365-32.445631 116.220508-48.662609 182.001428-48.662609 65.78559 0 126.452732 16.216978 182.006097 48.662609 55.553365 32.443296 99.552864 76.447465 131.993825 132.00083 32.445631 55.553365 48.657939 116.220508 48.657939 182.001428 0 65.776249-16.212308 126.443392-48.657939 181.996757z"
          fill="#3de210"></path>
    <path d="M768.026269 475.326746l-362.681212-213.330901c-13.767502-8.445905-27.999681-8.6654-42.663845-0.663156-14.220503 8.441235-21.33309 20.880089-21.33309 37.323567v426.673477c0 16.438808 7.112587 28.887003 21.33309 37.325903 7.112587 3.553958 14.220503 5.337943 21.330755 5.337943 7.551578 0 14.67117-1.99881 21.33309-5.994094l362.681212-213.333236c14.215833-7.999909 21.32842-20.223938 21.32842-36.658076 0-16.438808-7.128932-28.679183-21.32842-36.681427z"
          fill="#3de210"></path>
</svg>