<?xml version="1.0" standalone="no"?><!DOCTYPE svg PUBLIC "-//W3C//DTD SVG 1.1//EN"
        "http://www.w3.org/Graphics/SVG/1.1/DTD/svg11.dtd">
<svg class="icon" viewBox="0 0 1024 1024" version="1.1" xmlns="http://www.w3.org/2000/svg"
     width="16" height="16">
    <defs>
        <style type="text/css"></style>
    </defs>
    <path d="M781.592178 581.144889h-69.142045V442.856533h69.142045c53.444978 0 103.693511-20.814222 141.487644-58.609066 37.794844-37.793422 58.609067-88.040533 58.609067-141.484089 0-53.445689-20.814933-103.693511-58.609067-141.487645C885.284978 63.480889 835.037156 42.666667 781.592178 42.666667c-53.443556 0-103.689956 20.814222-141.484089 58.609066-37.794133 37.794844-58.607644 88.042667-58.607645 141.487645v69.142044h-138.289777v-69.142044c0-53.444267-20.814222-103.6928-58.607645-141.487645C346.8096 63.480889 296.5632 42.666667 243.118933 42.666667c-53.445689 0-103.693511 20.814222-141.487644 58.609066C63.837156 139.070578 43.022222 189.3184 43.022222 242.763378c0 53.443556 20.814933 103.690667 58.609067 141.4848 37.794844 37.794133 88.042667 58.608356 141.487644 58.608355h69.142045v138.288356h-69.142045c-53.444978 0-103.693511 20.814222-141.487644 58.608355C63.837156 677.546667 43.022222 727.793067 43.022222 781.236622c0 53.444978 20.814933 103.693511 58.609067 141.487645C139.425422 960.5184 189.673244 981.333333 243.118933 981.333333c53.444267 0 103.690667-20.814933 141.483378-58.609777 37.793422-37.794844 58.607644-88.042667 58.607645-141.487645v-69.140622h138.289066v69.140622c0 53.444978 20.814222 103.693511 58.607645 141.487645 37.793422 37.794844 88.039822 58.609067 141.484089 58.609066 53.445689 0 103.693511-20.814933 141.487644-58.609066 37.794844-37.794133 58.609067-88.041956 58.609067-141.487645 0-53.443556-20.814933-103.689956-58.609778-141.483378-37.792711-37.793422-88.040533-58.607644-141.485511-58.607644z m69.140622 200.091733c0 38.125511-31.016533 69.142756-69.141333 69.142756-38.1248 0-69.142044-31.017244-69.142045-69.142756v-69.140622h69.142045c38.1248 0 69.141333 31.015822 69.141333 69.140622z m-138.282667-538.473244c0-38.126933 31.016533-69.1456 69.142045-69.1456 38.1248 0 69.141333 31.018667 69.141333 69.1456 0 38.1248-31.016533 69.142044-69.141333 69.142044h-69.142045v-69.142044zM581.500444 442.856533v138.288356h-138.289777V442.856533h138.289777zM312.260978 242.763378v69.142044h-69.142045c-38.126933 0-69.146311-31.017244-69.146311-69.142044 0-38.126933 31.018667-69.1456 69.146311-69.1456 38.125511 0 69.142044 31.018667 69.142045 69.1456z m0 469.332622v69.140622c0 38.125511-31.016533 69.142756-69.142045 69.142756-38.126933 0-69.146311-31.017244-69.146311-69.142756 0-38.124089 31.018667-69.140622 69.146311-69.140622h69.142045z"
          fill="#3de210"></path>
</svg>